# xmcd CD database file
#
# Track frame offsets:
#	150
#	12067
#	37262
#	49652
#	73257
#	87680
#	109202
#	124460
#	143297
#	159925
#	183277
#	196192
#	215095
#	240005
#	247977
#	262027
#	275600
#	288285
#
# Disc length: 4051 seconds
#
# Revision: 1
# Processed by: cddbd v1.5.2PL0 Copyright (c) Steve Scherf et al.
# Submitted via: CDex 1.51
#
DISCID=060fd112
DTITLE=B.B.King - His Definitive Greatest Hits (Disc-2)
DYEAR=1998
DGENRE=Blues
TTITLE0=Help The Poor
TTITLE1=So Excited
TTITLE2=Broken Heat
TTITLE3=Ghetto Woman
TTITLE4=Ain't Nobody Home
TTITLE5=Darlin' Yor Know I Love You
TTITLE6=In The Midnight Hour
TTITLE7=Into The Night
TTITLE8=My Lucille
TTITLE9=The Blues Come Over Me
TTITLE10=Since I Met You Baby
TTITLE11=I'm Moving On
TTITLE12=Let The Good Times Roll
TTITLE13=Woke Up This Mornin'
TTITLE14=Three O'clock Blues
TTITLE15=Please Love Me
TTITLE16=Caidonia
TTITLE17=Rock Me Baby
EXTD=YEAR: 1998
EXTT0=
EXTT1=
EXTT2=
EXTT3=
EXTT4=
EXTT5=
EXTT6=
EXTT7=
EXTT8=
EXTT9=
EXTT10=
EXTT11=
EXTT12=
EXTT13=
EXTT14=
EXTT15=
EXTT16=
EXTT17=
PLAYORDER=
